<?xml version="1.0" encoding="UTF-8"?>
<svg width="211px" height="75px" viewBox="0 0 211 75" version="1.1" xmlns="http://www.w3.org/2000/svg" xmlns:xlink="http://www.w3.org/1999/xlink">
    <!-- Generator: Sketch 54.1 (76490) - https://sketchapp.com -->
    <title>Group 2</title>
    <desc>Created with Sketch.</desc>
    <g id="Ads-Posting" stroke="none" stroke-width="1" fill="none" fill-rule="evenodd">
        <g id="iPhone-8-Plus-Copy-12" transform="translate(-101.000000, -65.000000)" fill="#FFFFFF" fill-rule="nonzero">
            <g id="Group-2" transform="translate(101.000000, 65.000000)">
                <path d="M80.6707692,15.8369231 C83.6574508,15.8369231 85.9774276,16.5235829 87.6307692,17.8969231 C89.2841108,19.2702633 90.1241024,21.1969107 90.1507692,23.6769231 L90.1507692,37.7569231 L83.1507692,37.7569231 L83.1507692,35.3169231 C81.710762,37.1569323 79.5374504,38.0769231 76.6307692,38.0769231 C74.3374244,38.0769231 72.5307758,37.4569293 71.2107692,36.2169231 C69.8907626,34.9769169 69.2307692,33.3435999 69.2307692,31.3169231 C69.2307692,29.2635795 69.9440954,27.6635955 71.3707692,26.5169231 C72.797443,25.3702507 74.8440892,24.7835899 77.5107692,24.7569231 L83.1507692,24.7569231 L83.1507692,24.5169231 C83.1507692,23.4769179 82.7974394,22.6769259 82.0907692,22.1169231 C81.384099,21.5569203 80.3641092,21.2769231 79.0307692,21.2769231 C78.124098,21.2769231 77.1041082,21.4235883 75.9707692,21.7169231 C74.8374302,22.0102579 73.6974416,22.4369203 72.5507692,22.9969231 L70.5907692,18.1969231 C72.350778,17.3969191 74.0374278,16.8035917 75.6507692,16.4169231 C77.2641106,16.0302545 78.9374272,15.8369231 80.6707692,15.8369231 Z M78.8307692,33.2369231 C79.8974412,33.2369231 80.8307652,32.9769257 81.6307692,32.4569231 C82.4307732,31.9369205 82.9374348,31.2635939 83.1507692,30.4369231 L83.1507692,28.5569231 L78.9107692,28.5569231 C76.9107692,28.5569231 75.9107692,29.3035823 75.9107692,30.7969231 C75.9107692,31.5435935 76.1707666,32.1369209 76.6907692,32.5769231 C77.2107718,33.0169253 77.924098,33.2369231 78.8307692,33.2369231 Z M116.790769,8.07692308 L116.790769,37.7569231 L109.670769,37.7569231 L109.670769,34.9569231 C108.924099,35.9702615 108.010775,36.7369205 106.930769,37.2569231 C105.850764,37.7769257 104.630776,38.0369231 103.270769,38.0369231 C101.270759,38.0369231 99.5107768,37.5702611 97.9907692,36.6369231 C96.4707616,35.7035851 95.2907734,34.3902649 94.4507692,32.6969231 C93.610765,31.0035813 93.1907692,29.0502675 93.1907692,26.8369231 C93.1907692,24.6502455 93.6040984,22.7302647 94.4307692,21.0769231 C95.25744,19.4235815 96.4174284,18.1435943 97.9107692,17.2369231 C99.40411,16.3302519 101.137426,15.8769231 103.110769,15.8769231 C104.497443,15.8769231 105.744097,16.1435871 106.850769,16.6769231 C107.957441,17.2102591 108.897432,17.9702515 109.670769,18.9569231 L109.670769,8.07692308 L116.790769,8.07692308 Z M105.030769,32.4369231 C106.417443,32.4369231 107.537432,31.9369281 108.390769,30.9369231 C109.244107,29.9369181 109.670769,28.6369311 109.670769,27.0369231 C109.670769,25.4102483 109.244107,24.1035947 108.390769,23.1169231 C107.537432,22.1302515 106.417443,21.6369231 105.030769,21.6369231 C103.644096,21.6369231 102.51744,22.1369181 101.650769,23.1369231 C100.784098,24.1369281 100.350769,25.4369151 100.350769,27.0369231 C100.350769,28.6369231 100.784098,29.9369181 101.650769,30.9369231 C102.51744,31.9369281 103.644096,32.4369231 105.030769,32.4369231 Z M132.83986,22.3341958 C132.084099,21.859648 131.258046,21.4949547 130.361678,21.2401049 C129.46531,20.9852551 128.621682,20.8578322 127.830769,20.8578322 C126.565308,20.8578322 125.550319,21.1082842 124.785769,21.6091958 C124.02122,22.1101074 123.638951,22.7911612 123.638951,23.6523776 C123.638951,24.408139 123.849858,25.0232843 124.271678,25.4978322 C124.693499,25.97238 125.211978,26.3458611 125.827133,26.6182867 C126.442287,26.8907123 127.285915,27.1938911 128.358042,27.5278322 C129.605927,27.8969249 130.612129,28.2616182 131.376678,28.6219231 C132.141228,28.9822279 132.791524,29.5051015 133.327587,30.1905594 C133.863651,30.8760174 134.131678,31.7811599 134.131678,32.906014 C134.131678,33.8902613 133.854863,34.7602526 133.301224,35.516014 C132.747585,36.2717753 131.969865,36.8561634 130.968042,37.2691958 C129.966219,37.6822282 128.815018,37.8887413 127.514406,37.8887413 C126.231369,37.8887413 124.979109,37.6338953 123.757587,37.1241958 C122.536066,36.6144963 121.485925,35.9378364 120.607133,35.0941958 L121.450769,33.5914685 C122.276834,34.3999574 123.234703,35.0326784 124.324406,35.4896503 C125.414108,35.9466223 126.486219,36.1751049 127.540769,36.1751049 C128.946837,36.1751049 130.062886,35.8895017 130.888951,35.3182867 C131.715016,34.7470717 132.128042,33.97814 132.128042,33.0114685 C132.128042,32.2381313 131.917135,31.6054104 131.495315,31.1132867 C131.073494,30.621163 130.555015,30.243288 129.93986,29.9796503 C129.324706,29.7160127 128.463502,29.40844 127.356224,29.0569231 C126.108339,28.6702545 125.106531,28.3055612 124.350769,27.9628322 C123.595008,27.6201032 122.953499,27.1104113 122.426224,26.4337413 C121.898948,25.7570712 121.635315,24.8738982 121.635315,23.7841958 C121.635315,22.852676 121.898948,22.0354114 122.426224,21.3323776 C122.953499,20.6293438 123.691674,20.0888947 124.640769,19.711014 C125.589865,19.3331333 126.688339,19.1441958 127.936224,19.1441958 C128.938047,19.1441958 129.944249,19.2935882 130.95486,19.5923776 C131.965471,19.891167 132.857432,20.2866176 133.630769,20.7787413 L132.83986,22.3341958 Z M138.63986,19.3287413 L140.458951,19.3287413 L140.458951,27.7651049 L151.97986,27.7651049 L151.97986,19.3287413 L153.798951,19.3287413 L153.798951,37.7569231 L151.97986,37.7569231 L151.97986,29.3996503 L140.458951,29.3996503 L140.458951,37.7569231 L138.63986,37.7569231 L138.63986,19.3287413 Z M160.943497,32.8532867 L158.781678,37.7569231 L156.830769,37.7569231 L165.135315,19.3287413 L167.033497,19.3287413 L175.338042,37.7569231 L160.943497,32.8532867 Z M190.523497,37.7569231 L186.542587,31.746014 C185.98016,31.7811657 185.549559,31.7987413 185.250769,31.7987413 L180.188951,31.7987413 L180.188951,37.7569231 L178.36986,37.7569231 L178.36986,19.3287413 L185.250769,19.3287413 C187.553205,19.3287413 189.332733,19.8604026 190.589406,20.9237413 C191.846079,21.9870799 192.474406,23.494186 192.474406,25.4451049 C192.474406,26.9742034 192.105318,28.2484331 191.367133,29.2678322 C190.628947,30.2872312 189.574412,30.9990423 188.203497,31.4032867 L192.632587,37.7569231 L190.523497,37.7569231 Z M185.250769,30.1641958 C187.008354,30.1641958 188.361674,29.7643513 189.310769,28.9646503 C190.259865,28.1649494 190.734406,27.0093549 190.734406,25.4978322 C190.734406,24.0214611 190.259865,22.8966239 189.310769,22.1232867 C188.361674,21.3499495 187.008354,20.9632867 185.250769,20.9632867 L180.188951,20.9632867 L180.188951,30.1641958 L185.250769,30.1641958 Z M197.430769,19.3287413 L209.768951,19.3287413 L209.768951,20.9632867 L199.24986,20.9632867 L199.24986,27.5541958 L208.661678,27.5541958 L208.661678,29.1887413 L199.24986,29.1887413 L199.24986,36.1223776 L210.111678,36.1223776 L210.111678,37.7569231 L197.430769,37.7569231 L197.430769,19.3287413 Z" id="adSHARE-Copy"></path>
                <path d="M30.2677589,49.8527797 L30.2677589,74.4230781 L24.5702984,74.4230781 L24.5702984,49.8527797 L2.48689958e-14,49.8527797 L2.48689958e-14,44.1553192 L54.8380572,44.1553192 L54.8380572,49.8527797 L30.2677589,49.8527797 Z M36.3721808,40.2891849 L2.73359968e-14,40.2891849 L2.24019947e-14,-7.10542736e-15 L54.8380572,-1.42108547e-14 L54.8380572,40.2891849 L44.2861279,40.2891849 L44.2861279,35.0277546 L48.9443832,35.0277546 L48.9443832,5.11608699 L5.50124693,5.11608699 L5.50124693,35.0277546 L36.3721808,35.0277546 L36.3721808,40.2891849 Z" id="Combined-Shape"></path>
            </g>
        </g>
    </g>
</svg>