<?xml version="1.0" encoding="UTF-8"?>
<svg width="123px" height="26px" viewBox="0 0 123 26" version="1.1" xmlns="http://www.w3.org/2000/svg" xmlns:xlink="http://www.w3.org/1999/xlink">
    <!-- Generator: Sketch 54.1 (76490) - https://sketchapp.com -->
    <title>adSHARE Copy</title>
    <desc>Created with Sketch.</desc>
    <g id="Ads-Posting" stroke="none" stroke-width="1" fill="none" fill-rule="evenodd">
        <g id="iPhone-8-Plus" transform="translate(-146.000000, -640.000000)" fill="#3C3C3C" fill-rule="nonzero">
            <path d="M155.914667,646.725333 C158.503124,646.725333 160.513771,647.320438 161.946667,648.510667 C163.379563,649.700895 164.107555,651.370656 164.130667,653.52 L164.130667,665.722667 L158.064,665.722667 L158.064,663.608 C156.815994,665.202675 154.932457,666 152.413333,666 C150.425768,666 148.860006,665.462672 147.716,664.388 C146.571994,663.313328 146,661.897787 146,660.141333 C146,658.361769 146.618216,656.975116 147.854667,655.981333 C149.091117,654.987551 150.864877,654.479111 153.176,654.456 L158.064,654.456 L158.064,654.248 C158.064,653.346662 157.757781,652.653336 157.145333,652.168 C156.532886,651.682664 155.648895,651.44 154.493333,651.44 C153.707552,651.44 152.82356,651.56711 151.841333,651.821333 C150.859106,652.075557 149.871116,652.445331 148.877333,652.930667 L147.178667,648.770667 C148.704008,648.07733 150.165771,647.563113 151.564,647.228 C152.962229,646.892887 154.412437,646.725333 155.914667,646.725333 Z M154.32,661.805333 C155.244449,661.805333 156.05333,661.580002 156.746667,661.129333 C157.440003,660.678664 157.87911,660.095115 158.064,659.378667 L158.064,657.749333 L154.389333,657.749333 C152.655991,657.749333 151.789333,658.396438 151.789333,659.690667 C151.789333,660.337781 152.014664,660.851998 152.465333,661.233333 C152.916002,661.614669 153.534218,661.805333 154.32,661.805333 Z M187.218667,640 L187.218667,665.722667 L181.048,665.722667 L181.048,663.296 C180.400886,664.174227 179.609338,664.838664 178.673333,665.289333 C177.737329,665.740002 176.680006,665.965333 175.501333,665.965333 C173.767991,665.965333 172.242673,665.560893 170.925333,664.752 C169.607993,663.943107 168.585337,662.804896 167.857333,661.337333 C167.12933,659.86977 166.765333,658.176898 166.765333,656.258667 C166.765333,654.363546 167.123552,652.699563 167.84,651.266667 C168.556448,649.833771 169.561771,648.724448 170.856,647.938667 C172.150229,647.152885 173.652436,646.76 175.362667,646.76 C176.56445,646.76 177.644884,646.991109 178.604,647.453333 C179.563116,647.915558 180.377774,648.574218 181.048,649.429333 L181.048,640 L187.218667,640 Z M177.026667,661.112 C178.22845,661.112 179.199107,660.678671 179.938667,659.812 C180.678226,658.945329 181.048,657.818674 181.048,656.432 C181.048,655.022215 180.678226,653.889782 179.938667,653.034667 C179.199107,652.179551 178.22845,651.752 177.026667,651.752 C175.824883,651.752 174.848448,652.185329 174.097333,653.052 C173.346218,653.918671 172.970667,655.045326 172.970667,656.432 C172.970667,657.818674 173.346218,658.945329 174.097333,659.812 C174.848448,660.678671 175.824883,661.112 177.026667,661.112 Z M201.127879,652.356303 C200.472886,651.945028 199.756974,651.628961 198.980121,651.408091 C198.203269,651.187221 197.472125,651.076788 196.786667,651.076788 C195.689934,651.076788 194.810276,651.293846 194.147667,651.72797 C193.485057,652.162093 193.153758,652.75234 193.153758,653.498727 C193.153758,654.15372 193.336544,654.686846 193.702121,655.098121 C194.067699,655.509396 194.517048,655.83308 195.050182,656.069182 C195.583316,656.305284 196.31446,656.568039 197.243636,656.857455 C198.325137,657.177335 199.197179,657.493402 199.859788,657.805667 C200.522397,658.117931 201.085988,658.571088 201.550576,659.165152 C202.015164,659.759215 202.247455,660.543672 202.247455,661.518545 C202.247455,662.37156 202.007548,663.125552 201.527727,663.780545 C201.047907,664.435539 200.373883,664.942008 199.505636,665.29997 C198.63739,665.657931 197.639682,665.836909 196.512485,665.836909 C195.40052,665.836909 194.315228,665.616043 193.256576,665.174303 C192.197924,664.732563 191.287802,664.146125 190.526182,663.41497 L191.257333,662.112606 C191.973256,662.813296 192.803409,663.361655 193.747818,663.757697 C194.692227,664.153739 195.621389,664.351758 196.535333,664.351758 C197.753925,664.351758 198.721168,664.104235 199.437091,663.609182 C200.153014,663.114129 200.51097,662.447721 200.51097,661.609939 C200.51097,660.939714 200.328184,660.391356 199.962606,659.964848 C199.597028,659.538341 199.147679,659.21085 198.614545,658.982364 C198.081411,658.753878 197.335035,658.487315 196.375394,658.182667 C195.293894,657.847554 194.42566,657.531486 193.770667,657.234455 C193.115673,656.937423 192.559699,656.49569 192.102727,655.909242 C191.645755,655.322795 191.417273,654.557378 191.417273,653.61297 C191.417273,652.805653 191.645755,652.097357 192.102727,651.488061 C192.559699,650.878765 193.19945,650.410375 194.022,650.082879 C194.84455,649.755382 195.79656,649.591636 196.878061,649.591636 C197.746307,649.591636 198.618349,649.72111 199.494212,649.980061 C200.370075,650.239011 201.143108,650.581735 201.813333,651.008242 L201.127879,652.356303 Z M206.154545,649.751576 L207.731091,649.751576 L207.731091,657.063091 L217.715879,657.063091 L217.715879,649.751576 L219.292424,649.751576 L219.292424,665.722667 L217.715879,665.722667 L217.715879,658.479697 L207.731091,658.479697 L207.731091,665.722667 L206.154545,665.722667 L206.154545,649.751576 Z M225.484364,661.472848 L223.610788,665.722667 L221.92,665.722667 L229.117273,649.751576 L230.762364,649.751576 L237.959636,665.722667 L225.484364,661.472848 Z M251.120364,665.722667 L247.670242,660.513212 C247.182806,660.543677 246.809617,660.558909 246.550667,660.558909 L242.163758,660.558909 L242.163758,665.722667 L240.587212,665.722667 L240.587212,649.751576 L246.550667,649.751576 C248.546111,649.751576 250.088368,650.212349 251.177485,651.133909 C252.266601,652.055469 252.811152,653.361628 252.811152,655.052424 C252.811152,656.377643 252.491276,657.481975 251.851515,658.365455 C251.211754,659.248934 250.297824,659.865837 249.109697,660.216182 L252.948242,665.722667 L251.120364,665.722667 Z M246.550667,659.142303 C248.073907,659.142303 249.246784,658.795771 250.069333,658.102697 C250.891883,657.409623 251.303152,656.408108 251.303152,655.098121 C251.303152,653.8186 250.891883,652.843741 250.069333,652.173515 C249.246784,651.50329 248.073907,651.168182 246.550667,651.168182 L242.163758,651.168182 L242.163758,659.142303 L246.550667,659.142303 Z M257.106667,649.751576 L267.799758,649.751576 L267.799758,651.168182 L258.683212,651.168182 L258.683212,656.880303 L266.840121,656.880303 L266.840121,658.296909 L258.683212,658.296909 L258.683212,664.306061 L268.096788,664.306061 L268.096788,665.722667 L257.106667,665.722667 L257.106667,649.751576 Z" id="adSHARE-Copy"></path>
        </g>
    </g>
</svg>