<?xml version="1.0" encoding="UTF-8"?>
<svg width="133px" height="16px" viewBox="0 0 133 16" version="1.1" xmlns="http://www.w3.org/2000/svg" xmlns:xlink="http://www.w3.org/1999/xlink">
    <!-- Generator: Sketch 54.1 (76490) - https://sketchapp.com -->
    <title>Group 3 Copy</title>
    <desc>Created with Sketch.</desc>
    <g id="Ads-Posting" stroke="none" stroke-width="1" fill="none" fill-rule="evenodd">
        <g id="iPhone-8-Plus-Copy-2" transform="translate(-265.000000, -694.000000)" fill="#FFFFFF">
            <g id="Group-3-Copy" transform="translate(265.000000, 693.000000)">
                <text id="Forgot-Password" font-family="Montserrat-Regular, Montserrat" font-size="14" font-weight="normal">
                    <tspan x="19" y="14">Forgot Password</tspan>
                </text>
                <path d="M10.6666667,6.33333333 L9.9047619,6.33333333 L9.9047619,4.80952381 C9.9047619,2.67619048 8.22857143,1 6.0952381,1 C3.96190476,1 2.28571429,2.67619048 2.28571429,4.80952381 L2.28571429,6.33333333 L1.52380952,6.33333333 C0.685714286,6.33333333 0,7.01904762 0,7.85714286 L0,15.4761905 C0,16.3142857 0.685714286,17 1.52380952,17 L10.6666667,17 C11.5047619,17 12.1904762,16.3142857 12.1904762,15.4761905 L12.1904762,7.85714286 C12.1904762,7.01904762 11.5047619,6.33333333 10.6666667,6.33333333 L10.6666667,6.33333333 Z M6.0952381,13.1904762 C5.25714286,13.1904762 4.57142857,12.5047619 4.57142857,11.6666667 C4.57142857,10.8285714 5.25714286,10.1428571 6.0952381,10.1428571 C6.93333333,10.1428571 7.61904762,10.8285714 7.61904762,11.6666667 C7.61904762,12.5047619 6.93333333,13.1904762 6.0952381,13.1904762 L6.0952381,13.1904762 Z M8.45714286,6.33333333 L3.73333333,6.33333333 L3.73333333,4.80952381 C3.73333333,3.51428571 4.8,2.44761905 6.0952381,2.44761905 C7.39047619,2.44761905 8.45714286,3.51428571 8.45714286,4.80952381 L8.45714286,6.33333333 L8.45714286,6.33333333 Z" id="Shape"></path>
            </g>
        </g>
    </g>
</svg>