<?xml version="1.0" encoding="UTF-8"?>
<svg width="24px" height="32px" viewBox="0 0 24 32" version="1.1" xmlns="http://www.w3.org/2000/svg" xmlns:xlink="http://www.w3.org/1999/xlink">
    <!-- Generator: Sketch 54.1 (76490) - https://sketchapp.com -->
    <title>Shape</title>
    <desc>Created with Sketch.</desc>
    <g id="Ads-Posting" stroke="none" stroke-width="1" fill="none" fill-rule="evenodd">
        <g id="iPhone-8-Plus-Copy-12" transform="translate(-195.000000, -186.000000)" fill="#FFFFFF">
            <path d="M215.585266,196.423333 L214.11489,196.423333 L214.11489,193.445238 C214.11489,189.275905 210.880063,186 206.763009,186 C202.645956,186 199.411129,189.275905 199.411129,193.445238 L199.411129,196.423333 L197.940752,196.423333 C196.323339,196.423333 195,197.763476 195,199.401429 L195,214.291905 C195,215.929857 196.323339,217.27 197.940752,217.27 L215.585266,217.27 C217.20268,217.27 218.526019,215.929857 218.526019,214.291905 L218.526019,199.401429 C218.526019,197.763476 217.20268,196.423333 215.585266,196.423333 L215.585266,196.423333 Z M206.763009,209.824762 C205.145596,209.824762 203.822257,208.484619 203.822257,206.846667 C203.822257,205.208714 205.145596,203.868571 206.763009,203.868571 C208.380423,203.868571 209.703762,205.208714 209.703762,206.846667 C209.703762,208.484619 208.380423,209.824762 206.763009,209.824762 L206.763009,209.824762 Z M211.321176,196.423333 L202.204843,196.423333 L202.204843,193.445238 C202.204843,190.913857 204.26337,188.82919 206.763009,188.82919 C209.262649,188.82919 211.321176,190.913857 211.321176,193.445238 L211.321176,196.423333 L211.321176,196.423333 Z" id="Shape"></path>
        </g>
    </g>
</svg>