<?xml version="1.0" encoding="UTF-8"?>
<svg width="29px" height="33px" viewBox="0 0 29 33" version="1.1" xmlns="http://www.w3.org/2000/svg" xmlns:xlink="http://www.w3.org/1999/xlink">
    <!-- Generator: Sketch 54.1 (76490) - https://sketchapp.com -->
    <title>Group</title>
    <desc>Created with Sketch.</desc>
    <g id="Ads-Posting" stroke="none" stroke-width="1" fill="none" fill-rule="evenodd">
        <g id="iPhone-8-Plus" transform="translate(-192.000000, -690.000000)" fill="#E6E6E6">
            <g id="Group" transform="translate(192.000000, 690.000000)">
                <path d="M20.0357143,4.71428571 L20.0357143,7.40816327 L2.8622449,7.40816327 L2.8622449,30.1377551 L25.5918367,30.1377551 L25.5918367,7.40816327 L25.5918367,4.71428571 L28.2857143,4.71428571 L28.2857143,33 L0,33 L0,4.71428571 L20.0357143,4.71428571 Z M9.64046617,12.977188 L18.8139699,12.9965414 L18.8139699,15.0867068 L13.7820902,20.8153083 L19.0075038,20.8153083 L19.0075038,23.4473684 L9.46628571,23.4473684 L9.46628571,21.357203 L14.4981654,15.6286015 L9.64046617,15.6286015 L9.64046617,12.977188 Z M0,6.61692923e-14 L28.2857143,6.61692923e-14 L28.2857143,2.69387755 L0,2.69387755 L0,6.61692923e-14 Z" id="Combined-Shape"></path>
            </g>
        </g>
    </g>
</svg>